HIERARCHY
ROOT Hips
{
 OFFSET 0.000000 0.000000 0.000000
 CHANNELS 6 Xposition Yposition Zposition Yrotation Xrotation Zrotation
 JOINT Chest
 {
  OFFSET 0.000000 10.388337 0.005184
  CHANNELS 3 Yrotation Xrotation Zrotation
  JOINT Chest2
  {
   OFFSET 0.000000 10.458247 -0.010579
   CHANNELS 3 Yrotation Xrotation Zrotation
   JOINT Chest3
   {
    OFFSET 0.000000 10.415828 0.000000
    CHANNELS 3 Yrotation Xrotation Zrotation
    JOINT Chest4
    {
     OFFSET 0.000000 10.405206 0.000000
     CHANNELS 3 Yrotation Xrotation Zrotation
     JOINT Neck
     {
      OFFSET 0.000000 15.720090 0.000000
      CHANNELS 3 Yrotation Xrotation Zrotation
      JOINT Head
      {
       OFFSET 0.000000 9.732643 -0.022378
       CHANNELS 3 Yrotation Xrotation Zrotation
       End Site
       {
        OFFSET 0.000000 18.603619 -0.011814
       }
      }
     }
     JOINT RightCollar
     {
      OFFSET -3.167735 10.388953 0.000000
      CHANNELS 3 Yrotation Xrotation Zrotation
      JOINT RightShoulder
      {
       OFFSET -14.584825 0.000000 0.000000
       CHANNELS 3 Yrotation Xrotation Zrotation
       JOINT RightElbow
       {
        OFFSET 0.000000 -31.921689 0.000000
        CHANNELS 3 Yrotation Xrotation Zrotation
        JOINT RightWrist
        {
         OFFSET 0.000000 -25.835217 0.000000
         CHANNELS 3 Yrotation Xrotation Zrotation
         End Site
         {
          OFFSET 0.000000 -19.128920 0.000000
         }
        }
       }
      }
     }
     JOINT LeftCollar
     {
      OFFSET 3.167735 10.388953 0.000000
      CHANNELS 3 Yrotation Xrotation Zrotation
      JOINT LeftShoulder
      {
       OFFSET 14.584825 0.000000 0.000000
       CHANNELS 3 Yrotation Xrotation Zrotation
       JOINT LeftElbow
       {
        OFFSET 0.000000 -31.921689 0.000000
        CHANNELS 3 Yrotation Xrotation Zrotation
        JOINT LeftWrist
        {
         OFFSET 0.000000 -25.835217 0.000000
         CHANNELS 3 Yrotation Xrotation Zrotation
         End Site
         {
          OFFSET 0.000000 -19.128920 0.000000
         }
        }
       }
      }
     }
    }
   }
  }
 }
 JOINT RightHip
 {
  OFFSET -8.403278 -0.025659 -0.002592
  CHANNELS 3 Yrotation Xrotation Zrotation
  JOINT RightKnee
  {
   OFFSET 0.000000 -44.040977 0.002477
   CHANNELS 3 Yrotation Xrotation Zrotation
   JOINT RightAnkle
   {
    OFFSET 0.000000 -42.951162 0.004189
    CHANNELS 3 Yrotation Xrotation Zrotation
    JOINT RightToe
    {
     OFFSET 0.000000 -5.494238 12.197485
     CHANNELS 3 Yrotation Xrotation Zrotation
     End Site
     {
      OFFSET 0.000000 -1.538716 6.371628
     }
    }
   }
  }
 }
 JOINT LeftHip
 {
  OFFSET 8.403278 -0.025659 -0.002592
  CHANNELS 3 Yrotation Xrotation Zrotation
  JOINT LeftKnee
  {
   OFFSET 0.000000 -44.040977 0.002477
   CHANNELS 3 Yrotation Xrotation Zrotation
   JOINT LeftAnkle
   {
    OFFSET 0.000000 -42.951162 0.004189
    CHANNELS 3 Yrotation Xrotation Zrotation
    JOINT LeftToe
    {
     OFFSET 0.000000 -5.494238 12.197485
     CHANNELS 3 Yrotation Xrotation Zrotation
     End Site
     {
      OFFSET 0.000000 -1.538716 6.371628
     }
    }
   }
  }
 }
}
MOTION
Frames: 13
Frame Time: 0.008333
-34.379796 77.381601 110.164414 83.949400 -21.461127 5.770149 -1.501652 13.049055 3.498896 -0.158879 1.023617 0.191983 -0.268150 1.740851 0.324801 -1.620728 11.640533 2.036591 8.960031 27.541318 -2.297182 16.411743 16.046879 -5.844278 6.658310 5.187829 -8.198749 1.426984 -19.172342 -27.584825 -48.760866 -46.385645 107.921554 -20.367419 -13.047385 -9.416181 -4.021662 1.020146 3.477187 18.724043 -45.324894 33.718109 55.964246 -13.690745 -105.436313 17.800323 3.152849 -12.011605 -15.047096 -1.207192 -14.574124 -7.196200 67.584784 -5.685445 -22.354363 -41.610604 1.971039 -0.107014 0.973747 -0.705189 4.936730 -22.375769 20.153964 16.052553 47.258371 9.242111 -12.234985 -0.256368 -14.997981 -0.176182 -1.533688 -0.090882
-34.455525 77.428225 110.272717 83.944027 -21.423825 5.774024 -1.480796 13.036068 3.478626 -0.155820 1.020718 0.190614 -0.262996 1.736109 0.322545 -1.590142 11.628737 2.028006 8.958798 27.500696 -2.265356 16.405555 15.967027 -5.792576 6.645327 5.157562 -8.172590 1.391745 -19.136229 -27.548454 -48.675078 -46.363707 107.832240 -20.348500 -13.025983 -9.351018 -4.010147 1.059652 3.537796 18.671210 -45.295505 33.702420 55.912761 -13.722993 -105.378605 17.790412 3.156652 -11.989628 -15.065070 -1.363655 -14.518277 -7.221251 67.771125 -5.656838 -22.288025 -41.343494 1.986237 -0.095487 0.539021 -0.672649 4.875343 -22.267809 20.171807 16.020984 46.939550 9.179841 -12.195834 -0.109301 -15.103508 -0.156942 -1.493150 -0.088317
-34.523954 77.469327 110.375460 83.904303 -21.401087 5.785704 -1.434921 13.039339 3.464874 -0.152998 1.017967 0.189263 -0.258243 1.731607 0.320315 -1.561999 11.617481 2.019144 8.958442 27.455877 -2.231483 16.400733 15.879234 -5.737908 6.638134 5.125665 -8.145285 1.360587 -19.107454 -27.529456 -48.618722 -46.345836 107.768815 -20.342550 -13.036426 -9.304895 -3.997785 1.095813 3.596336 18.610723 -45.264779 33.700284 55.873904 -13.770578 -105.337579 17.789777 3.130560 -11.960544 -15.093333 -1.380333 -14.484396 -7.148410 67.696992 -5.541707 -22.197853 -41.379309 1.960257 -0.088002 0.538640 -0.644066 4.830785 -22.148924 20.202873 16.006921 46.645090 9.124292 -12.145927 0.058660 -15.199880 -0.162141 -1.481115 -0.090277
-34.587228 77.504540 110.470822 83.861987 -21.382108 5.804656 -1.393534 13.043076 3.445263 -0.150137 1.015854 0.187972 -0.253417 1.728156 0.318180 -1.532691 11.609559 2.010282 8.958756 27.406734 -2.194863 16.396770 15.783138 -5.679013 6.630476 5.090222 -8.113720 1.339320 -19.082651 -27.523683 -48.587890 -46.328343 107.723367 -20.350977 -13.051189 -9.265855 -3.992361 1.121568 3.651586 18.541798 -45.235209 33.717920 55.836820 -13.807810 -105.314363 17.803524 3.100195 -11.944652 -15.127761 -1.401402 -14.465484 -7.105863 67.633307 -5.461565 -22.103137 -41.422902 1.943591 -0.081033 0.541378 -0.617911 4.793305 -22.034772 20.231443 16.004152 46.373411 9.074931 -12.116653 0.212623 -15.290522 -0.174001 -1.469881 -0.091020
-34.640405 77.536065 110.562320 83.772152 -21.393318 5.832133 -1.311102 13.076561 3.433586 -0.147005 1.014528 0.186650 -0.248120 1.726001 0.315986 -1.499545 11.606024 2.000507 8.959918 27.354324 -2.154763 16.393773 15.680602 -5.614496 6.618835 5.054158 -8.075384 1.324929 -19.063404 -27.524416 -48.570287 -46.298852 107.689783 -20.361533 -13.047863 -9.222777 -3.997810 1.131737 3.700817 18.461152 -45.205985 33.758819 55.792033 -13.821389 -105.311076 17.824329 3.080439 -11.951882 -15.130856 -1.391075 -14.454808 -7.070888 67.579865 -5.402835 -21.956380 -41.474714 1.908213 -0.086389 0.541698 -0.598023 4.808257 -21.899286 20.275136 16.017268 46.124822 9.037451 -12.097383 0.388710 -15.359667 -0.213120 -1.489945 -0.102320
-34.691453 77.561258 110.648918 83.701001 -21.393180 5.844824 -1.245477 13.091798 3.428262 -0.143810 1.013916 0.185432 -0.242709 1.725022 0.313960 -1.464894 11.606208 1.991183 8.963580 27.300386 -2.112884 16.394916 15.575277 -5.547472 6.608485 5.020568 -8.034739 1.308775 -19.050036 -27.524344 -48.555287 -46.242843 107.670379 -20.359191 -13.022237 -9.178192 -4.009069 1.130346 3.743663 18.377199 -45.175116 33.810253 55.740746 -13.817257 -105.333141 17.844567 3.075145 -11.977452 -15.146115 -1.427812 -14.427388 -7.046517 67.602834 -5.359152 -21.856792 -41.457166 1.886845 -0.058487 0.433999 -0.563359 4.822366 -21.789788 20.330459 16.056091 45.899587 9.017241 -12.116948 0.502610 -15.430491 -0.226759 -1.466802 -0.100778
-34.735137 77.582240 110.737117 83.635151 -21.414474 5.813116 -1.184153 13.123771 3.462075 -0.141013 1.013886 0.184476 -0.237965 1.724996 0.312370 -1.433965 11.608917 1.983730 8.972677 27.246454 -2.071391 16.405778 15.470648 -5.482148 6.606753 4.989457 -7.997778 1.290178 -19.039527 -27.520065 -48.549024 -46.170844 107.669465 -20.348315 -12.980135 -9.136401 -4.016196 1.124915 3.782862 18.306565 -45.145883 33.853166 55.688965 -13.804097 -105.380030 17.856879 3.086408 -12.014851 -15.170624 -1.395226 -14.354195 -6.987177 67.555947 -5.270671 -21.837755 -41.500031 1.866019 0.009565 0.421787 -0.509175 4.824499 -21.675750 20.439485 16.122080 45.699659 9.014778 -12.149499 0.587797 -15.490661 -0.252197 -1.427362 -0.101747
-34.767027 77.601553 110.821524 83.542730 -21.478538 5.777962 -1.107703 13.196677 3.504551 -0.138831 1.014387 0.183789 -0.234259 1.725839 0.311223 -1.409336 11.613744 1.978009 8.988196 27.192688 -2.031197 16.428294 15.367246 -5.420323 6.614654 4.958589 -7.964087 1.271723 -19.031403 -27.511626 -48.555836 -46.103096 107.683649 -20.342625 -12.926510 -9.091403 -4.017128 1.117505 3.818428 18.256204 -45.122109 33.882144 55.642507 -13.788862 -105.443617 17.858356 3.107707 -12.059479 -15.160701 -1.292498 -14.287426 -6.906324 67.483310 -5.151209 -21.787955 -41.557581 1.830490 0.043481 0.438379 -0.467567 4.857068 -21.534979 20.566719 16.198264 45.527284 9.026691 -12.189166 0.700645 -15.540721 -0.296990 -1.427718 -0.107290
-34.799550 77.615296 110.890079 83.465289 -21.510557 5.778971 -1.056191 13.231632 3.500822 -0.137017 1.015494 0.183479 -0.231168 1.727676 0.310704 -1.387999 11.621159 1.975474 9.007343 27.139049 -1.992690 16.457576 15.264736 -5.362170 6.624000 4.926837 -7.930146 1.248584 -19.031151 -27.497402 -48.558760 -46.039488 107.701957 -20.341572 -12.856504 -9.039492 -4.020563 1.105134 3.849511 18.221784 -45.099866 33.902926 55.609639 -13.780230 -105.516409 17.854787 3.131998 -12.109274 -15.128926 -1.260320 -14.276809 -6.838541 67.474344 -5.031591 -21.699606 -41.595067 1.801683 0.041702 0.418580 -0.439175 4.926725 -21.445451 20.638407 16.270693 45.381725 9.054341 -12.274595 0.772832 -15.605690 -0.303596 -1.413436 -0.093448
-34.826207 77.625763 110.951909 83.383641 -21.552383 5.773025 -1.001198 13.272379 3.501229 -0.135206 1.017099 0.183635 -0.228072 1.730327 0.310974 -1.365762 11.630730 1.977725 9.026848 27.087316 -1.955603 16.487648 15.165989 -5.306390 6.625458 4.894820 -7.895560 1.217202 -19.042345 -27.471634 -48.542776 -45.975555 107.713955 -20.341367 -12.758636 -8.984862 -4.034439 1.088536 3.878382 18.199377 -45.073829 33.917502 55.597081 -13.780853 -105.594264 17.848896 3.163993 -12.161628 -15.071235 -1.214682 -14.268847 -6.805578 67.473967 -4.918534 -21.619554 -41.624460 1.775252 0.037733 0.394018 -0.409132 5.031856 -21.368971 20.710840 16.343832 45.260613 9.105889 -12.390237 0.827374 -15.662225 -0.315137 -1.401195 -0.084077
-34.848081 77.632822 111.006188 83.301615 -21.598978 5.759735 -0.944464 13.313545 3.505483 -0.133331 1.018843 0.184057 -0.224863 1.733206 0.311695 -1.342396 11.640787 1.982928 9.046371 27.039721 -1.918973 16.517593 15.074947 -5.250943 6.618295 4.863093 -7.858977 1.183860 -19.060671 -27.434537 -48.512707 -45.911726 107.719668 -20.341012 -12.637013 -8.935226 -4.057944 1.071823 3.907652 18.188000 -45.047234 33.921578 55.602786 -13.786965 -105.671848 17.840371 3.210162 -12.213693 -14.996369 -1.161741 -14.259712 -6.775198 67.481452 -4.794968 -21.554627 -41.648652 1.751357 0.032584 0.368664 -0.378081 5.163947 -21.309590 20.781739 16.413740 45.162882 9.177785 -12.527951 0.866644 -15.711098 -0.325186 -1.391403 -0.078888
-34.866948 77.636134 111.051040 83.227316 -21.641288 5.744180 -0.894361 13.345926 3.506439 -0.131472 1.020336 0.184594 -0.221683 1.735671 0.312613 -1.319304 11.649353 1.989672 9.066033 26.997644 -1.882215 16.547436 14.994084 -5.194646 6.606902 4.834345 -7.817601 1.155043 -19.079488 -27.395292 -48.483639 -45.848523 107.725610 -20.337367 -12.514345 -8.896477 -4.084816 1.056219 3.937009 18.188553 -45.024648 33.907035 55.617824 -13.795754 -105.747386 17.829778 3.263731 -12.264399 -14.918660 -1.115653 -14.252985 -6.738934 67.497884 -4.667422 -21.498674 -41.671507 1.729322 0.027674 0.345359 -0.346355 5.312237 -21.275440 20.836772 16.452379 45.089907 9.250416 -12.644789 0.896522 -15.750549 -0.334365 -1.382905 -0.078603
-34.883794 77.635665 111.085478 83.165759 -21.674864 5.730261 -0.855594 13.366767 3.500403 -0.129796 1.021287 0.185290 -0.218819 1.737240 0.313805 -1.298558 11.654739 1.998570 9.084561 26.961162 -1.845662 16.574970 14.923449 -5.137832 6.593294 4.810213 -7.772278 1.129141 -19.097546 -27.358792 -48.463556 -45.794615 107.733698 -20.327681 -12.418145 -8.872042 -4.110092 1.039379 3.962683 18.199344 -45.006514 33.873383 55.639625 -13.807532 -105.823720 17.818869 3.310477 -12.310803 -14.851856 -1.086380 -14.250432 -6.711531 67.523326 -4.561336 -21.455152 -41.692297 1.717165 0.023529 0.324723 -0.313926 5.468289 -21.270492 20.866226 16.433306 45.045170 9.306602 -12.710614 0.920963 -15.776920 -0.351172 -1.377246 -0.087072
